Coordinates
version=1
nRows=17
nColumns=40
inDegrees=yes

Units are S.I. units (second, meters, Newtons, ...)
Angles are in degrees.

endheader
time	pelvis_tilt	pelvis_list	pelvis_rotation	pelvis_tx	pelvis_ty	pelvis_tz	hip_flexion_r	hip_adduction_r	hip_rotation_r	knee_angle_r	knee_angle_r_beta	ankle_angle_r	subtalar_angle_r	mtp_angle_r	hip_flexion_l	hip_adduction_l	hip_rotation_l	knee_angle_l	knee_angle_l_beta	ankle_angle_l	subtalar_angle_l	mtp_angle_l	lumbar_extension	lumbar_bending	lumbar_rotation	arm_flex_r	arm_add_r	arm_rot_r	elbow_flex_r	pro_sup_r	wrist_flex_r	wrist_dev_r	arm_flex_l	arm_add_l	arm_rot_l	elbow_flex_l	pro_sup_l	wrist_flex_l	wrist_dev_l
     52.27000000	     -4.60712162	     -4.78174932	     -1.30098048	      0.92540482	      0.93194655	      0.41680472	     33.55090336	     -5.57513268	     -6.51292707	     66.25345221	     66.25345221	     -3.24960760	    -18.40117910	      6.60898593	     15.60638340	     -4.01849599	     -5.02014364	     22.63714387	     22.63714387	     13.68449322	    -13.30550894	      3.42510616	    -11.19936148	      5.97174960	      2.18556150	     17.92359383	    -11.46178787	     -0.94050093	     39.29256590	     45.75347094	      0.00000000	      0.00000000	     11.64493134	    -14.74150462	     -1.45524317	     54.08403409	     46.25951969	      0.00000000	      0.00000000
     52.28278571	     -4.61731019	     -4.83279180	     -1.75892420	      0.92417409	      0.93264810	      0.41709709	     34.31950503	     -5.12283352	     -6.17321806	     63.93866486	     63.93866486	     -2.95030324	    -17.83630727	      5.78767469	     14.85997634	     -4.11956807	     -5.41426882	     22.09373550	     22.09373550	     13.87658659	    -13.26095854	      3.44438344	    -11.41145231	      6.04170317	      2.58973009	     15.73726020	    -11.93262197	     -0.81709908	     37.72867894	     45.79353079	      0.00000000	      0.00000000	     13.00530780	    -15.08017566	     -1.95039448	     55.53604995	     46.33991826	      0.00000000	      0.00000000
     52.29557143	     -4.65816934	     -4.85768860	     -2.17649765	      0.92297748	      0.93320549	      0.41732554	     34.88936821	     -4.74826919	     -5.93657542	     61.25477104	     61.25477104	     -3.08928854	    -17.20645160	      3.64276544	     14.16200664	     -4.17738985	     -5.79876775	     21.56513186	     21.56513186	     14.04559899	    -13.15220194	      3.32986263	    -11.58363858	      6.08477842	      2.75828937	     13.80124885	    -12.23016872	     -0.67204254	     35.77435595	     45.84994998	      0.00000000	      0.00000000	     14.00610645	    -15.51109869	     -2.71634378	     57.70693132	     46.46022678	      0.00000000	      0.00000000
     52.30835714	     -4.67995695	     -4.94358615	     -2.55529753	      0.92180101	      0.93376329	      0.41756096	     35.15494578	     -4.33101259	     -5.80162300	     58.08576177	     58.08576177	     -3.94019474	    -16.80453135	     -0.45886550	     13.44762071	     -4.28525736	     -6.12545280	     21.00791030	     21.00791030	     14.08518733	    -13.10952478	      3.09863200	    -11.78779705	      6.23002705	      2.26277664	     12.66458848	    -12.17398524	     -0.42136840	     33.06920672	     45.93790598	      0.00000000	      0.00000000	     14.30210725	    -16.20516208	     -4.27959135	     60.45642944	     46.68675633	      0.00000000	      0.00000000
     52.32114286	     -4.73447583	     -5.02770347	     -2.91128212	      0.92053973	      0.93413250	      0.41790800	     35.42646534	     -3.89486860	     -5.65743925	     54.88495486	     54.88495486	     -3.77926750	    -15.71495629	     -1.54859033	     12.83336129	     -4.39964147	     -6.44330126	     20.56177892	     20.56177892	     14.26845789	    -13.00248583	      3.00128077	    -11.97569682	      6.36556658	      2.37995920	     10.81052634	    -12.48426286	     -0.29673208	     31.48536480	     45.98365144	      0.00000000	      0.00000000	     15.36296776	    -16.60012988	     -5.16994102	     62.33029706	     46.83073323	      0.00000000	      0.00000000
     52.33392857	     -4.81332671	     -5.11984832	     -3.21364152	      0.91923950	      0.93438618	      0.41828089	     35.57921077	     -3.49358382	     -5.61336986	     51.46279832	     51.46279832	     -3.27528225	    -14.22517551	     -1.81049467	     12.27259292	     -4.51222715	     -6.70004849	     20.13283789	     20.13283789	     14.45186843	    -12.89284524	      2.97260097	    -12.12844234	      6.51548887	      2.57231742	      8.83409094	    -12.84848937	     -0.25173856	     30.36861629	     46.01288898	      0.00000000	      0.00000000	     16.56290672	    -16.97532586	     -5.71613799	     63.82732471	     46.91178706	      0.00000000	      0.00000000
     52.34671429	     -4.94979932	     -5.26557072	     -3.45311027	      0.91792536	      0.93445762	      0.41871303	     35.60812953	     -3.08187714	     -5.72462034	     47.73961352	     47.73961352	     -2.77431960	    -12.54850447	     -1.97905658	     11.83113898	     -4.68436885	     -6.87302351	     19.79295716	     19.79295716	     14.66509768	    -12.80035819	      2.89407392	    -12.20183228	      6.74509156	      2.55380268	      6.95468986	    -13.15875343	     -0.25254896	     29.45832639	     46.03703425	      0.00000000	      0.00000000	     17.60949227	    -17.42178027	     -6.22515084	     65.22107364	     46.98268353	      0.00000000	      0.00000000
     52.35950000	     -5.20301794	     -5.36562112	     -3.67680434	      0.91656212	      0.93422052	      0.41931917	     35.61915398	     -2.68460883	     -5.86658183	     43.78119323	     43.78119323	     -2.21503095	    -10.85919802	     -2.02673135	     11.54460604	     -4.82465887	     -7.03600751	     19.47682736	     19.47682736	     14.84700074	    -12.70924617	      2.80657029	    -12.12316526	      6.94573734	      2.46366590	      5.07751343	    -13.34891585	     -0.26693948	     28.68785140	     46.05566941	      0.00000000	      0.00000000	     18.61683182	    -18.02658624	     -6.74295046	     66.51503308	     47.05016715	      0.00000000	      0.00000000
     52.37228571	     -5.35417112	     -5.46065013	     -3.86714154	      0.91539126	      0.93403779	      0.41994630	     35.30926034	     -2.35947527	     -6.23158306	     39.54207522	     39.54207522	     -1.74439129	     -8.81799161	     -2.09613941	     11.13747235	     -4.95266788	     -7.19942418	     19.17528031	     19.17528031	     15.07366580	    -12.59703886	      2.65474592	    -12.15113894	      7.06470263	      2.49420634	      3.16508694	    -13.64698241	     -0.33467656	     27.98049705	     46.07563786	      0.00000000	      0.00000000	     19.54997696	    -18.36372626	     -7.28702769	     68.23096015	     47.12601209	      0.00000000	      0.00000000
     52.38507143	     -5.44279292	     -5.43759225	     -4.04407868	      0.91434517	      0.93370971	      0.42060823	     34.74390782	     -2.18454335	     -6.80513264	     35.05750550	     35.05750550	     -1.70865061	     -6.67264335	     -3.43289129	     10.66074347	     -4.95610152	     -7.42771197	     18.86285561	     18.86285561	     15.15788278	    -12.47935128	      2.06796800	    -12.34894712	      7.05167657	      2.08539895	      1.27314640	    -13.81122323	     -0.96882592	     28.11892031	     46.10897358	      0.00000000	      0.00000000	     19.44406762	    -18.87902045	     -8.87507830	     72.09300474	     47.33315331	      0.00000000	      0.00000000
     52.39785714	     -5.63603678	     -5.43632268	     -4.22110671	      0.91344445	      0.93316168	      0.42151109	     34.19126281	     -1.90969858	     -7.44367103	     30.61773318	     30.61773318	     -1.31107927	     -4.32198645	     -3.05745299	     10.27117245	     -4.99045248	     -7.59155361	     18.53128203	     18.53128203	     15.37990524	    -12.36025765	      1.82768994	    -12.26560573	      7.07461776	      2.09284258	     -0.64889840	    -13.95977737	     -1.08189451	     27.56225283	     46.12646708	      0.00000000	      0.00000000	     20.37666993	    -19.20181668	     -9.37691292	     73.63936130	     47.41033695	      0.00000000	      0.00000000
     52.41064286	     -5.80999740	     -5.37425468	     -4.35079318	      0.91279281	      0.93251616	      0.42249024	     33.49314131	     -1.68015991	     -8.28495491	     26.26049339	     26.26049339	     -0.86258501	     -2.01778693	     -2.19528594	      9.86185501	     -4.96610639	     -7.76987424	     18.21540659	     18.21540659	     15.55508344	    -12.20958675	      1.48289967	    -12.15568371	      7.02821208	      2.00312190	     -2.59073132	    -14.09194161	     -1.35158500	     27.41147602	     46.13749312	      0.00000000	      0.00000000	     21.02514315	    -19.61922948	     -9.90302782	     75.41052594	     47.49254347	      0.00000000	      0.00000000
     52.42342857	     -6.09740185	     -5.22214160	     -4.50373971	      0.91225537	      0.93149019	      0.42369973	     32.91903597	     -1.39384698	     -8.89559673	     22.19994668	     22.19994668	     -0.64958088	     -0.33957900	     -1.17687372	      9.59600383	     -4.85555390	     -7.90187104	     17.95548306	     17.95548306	     15.78252323	    -12.15171028	      1.23756255	    -11.82062401	      6.90961946	      1.77434750	     -4.36151434	    -14.10298564	     -1.48463207	     27.08665437	     46.14549617	      0.00000000	      0.00000000	     21.69618899	    -20.13981623	    -10.28384937	     76.54269443	     47.54720251	      0.00000000	      0.00000000
     52.43621429	     -6.08789214	     -5.19306846	     -4.60313771	      0.91219168	      0.93082907	      0.42500292	     31.94799390	     -1.07638917	    -10.04840518	     18.55137573	     18.55137573	     -0.30777530	      1.87299680	      0.28117924	      8.90651277	     -4.86218406	     -8.06546646	     17.58429297	     17.58429297	     16.03678472	    -11.95377739	      0.84457915	    -11.85100329	      6.86748225	      1.77398726	     -6.27238113	    -14.23271561	     -1.76678881	     27.01416765	     46.15279848	      0.00000000	      0.00000000	     22.20684608	    -20.35412022	    -10.66316860	     78.28729103	     47.61266447	      0.00000000	      0.00000000
     52.44900000	     -6.23874847	     -4.97300167	     -4.76925328	      0.91223697	      0.92975701	      0.42646707	     31.34225048	     -0.88387386	    -10.95652347	     15.71557568	     15.71557568	      0.05999794	      3.68382676	      1.74313425	      8.39067772	     -4.68344810	     -8.33760101	     17.20956672	     17.20956672	     16.24411250	    -11.77297720	      0.45606749	    -11.63801444	      6.65779402	      1.69975043	     -8.02131873	    -14.11683685	     -2.03504553	     27.03353442	     46.15583734	      0.00000000	      0.00000000	     22.71303377	    -20.66171760	    -11.03543092	     79.84269115	     47.67358506	      0.00000000	      0.00000000
     52.46178571	     -6.13175430	     -4.86846313	     -4.87792587	      0.91270984	      0.92902613	      0.42800167	     30.58346946	     -0.69598307	    -12.34723695	     13.78911636	     13.78911636	      0.82830648	      5.70400165	      3.98253542	      7.50190896	     -4.60868697	     -8.57491308	     16.72717480	     16.72717480	     16.40820022	    -11.47619960	     -0.21257196	    -11.72323711	      6.52913324	      1.71296768	     -9.96933242	    -14.17443594	     -2.62438584	     27.49911979	     46.16207592	      0.00000000	      0.00000000	     22.89007049	    -20.83528413	    -11.48777749	     81.95383367	     47.75392576	      0.00000000	      0.00000000
     52.47457143	     -6.30794665	     -4.69355351	     -5.05922893	      0.91306515	      0.92787088	      0.42974363	     30.51994397	     -0.59290751	    -13.31117309	     13.19094460	     13.19094460	      2.83472292	      7.03517770	      9.64650632	      6.91950610	     -4.47389830	     -8.78795947	     16.17969212	     16.17969212	     16.07898328	    -11.60238990	     -1.79316951	    -11.47697529	      6.37323212	      1.53618870	    -11.96999713	    -13.90892295	     -4.73042897	     29.18894649	     46.22234484	      0.00000000	      0.00000000	     22.82745744	    -21.10802733	    -12.32738352	     83.93121140	     47.90447002	      0.00000000	      0.00000000
